<svg id="visual" viewBox="0 0 900 600" width="900" height="600" xmlns="http://www.w3.org/2000/svg" xmlns:xlink="http://www.w3.org/1999/xlink" version="1.1"><path d="M0 91L113 91L113 145L225 145L225 49L338 49L338 79L450 79L450 61L563 61L563 55L675 55L675 199L788 199L788 139L900 139L900 175L900 0L900 0L788 0L788 0L675 0L675 0L563 0L563 0L450 0L450 0L338 0L338 0L225 0L225 0L113 0L113 0L0 0Z" fill="#fa7268"></path><path d="M0 139L113 139L113 265L225 265L225 187L338 187L338 127L450 127L450 115L563 115L563 205L675 205L675 319L788 319L788 229L900 229L900 295L900 173L900 137L788 137L788 197L675 197L675 53L563 53L563 59L450 59L450 77L338 77L338 47L225 47L225 143L113 143L113 89L0 89Z" fill="#e45765"></path><path d="M0 433L113 433L113 487L225 487L225 403L338 403L338 307L450 307L450 229L563 229L563 499L675 499L675 523L788 523L788 475L900 475L900 553L900 293L900 227L788 227L788 317L675 317L675 203L563 203L563 113L450 113L450 125L338 125L338 185L225 185L225 263L113 263L113 137L0 137Z" fill="#cb3d62"></path><path d="M0 601L113 601L113 601L225 601L225 601L338 601L338 601L450 601L450 601L563 601L563 601L675 601L675 601L788 601L788 601L900 601L900 601L900 551L900 473L788 473L788 521L675 521L675 497L563 497L563 227L450 227L450 305L338 305L338 401L225 401L225 485L113 485L113 431L0 431Z" fill="#b0235f"></path></svg>